<?xml version="1.0" encoding="utf-8" standalone="no"?>
<!DOCTYPE svg PUBLIC "-//W3C//DTD SVG 1.1//EN"
  "http://www.w3.org/Graphics/SVG/1.1/DTD/svg11.dtd">
<svg xmlns:xlink="http://www.w3.org/1999/xlink" width="684pt" height="369.216pt" viewBox="0 0 684 369.216" xmlns="http://www.w3.org/2000/svg" version="1.1">
 <metadata>
  <rdf:RDF xmlns:dc="http://purl.org/dc/elements/1.1/" xmlns:cc="http://creativecommons.org/ns#" xmlns:rdf="http://www.w3.org/1999/02/22-rdf-syntax-ns#">
   <cc:Work>
    <dc:type rdf:resource="http://purl.org/dc/dcmitype/StillImage"/>
    <dc:date>2025-12-28T10:48:48.900990</dc:date>
    <dc:format>image/svg+xml</dc:format>
    <dc:creator>
     <cc:Agent>
      <dc:title>Matplotlib v3.10.7, https://matplotlib.org/</dc:title>
     </cc:Agent>
    </dc:creator>
   </cc:Work>
  </rdf:RDF>
 </metadata>
 <defs>
  <style type="text/css">*{stroke-linejoin: round; stroke-linecap: butt}</style>
 </defs>
 <g id="figure_1">
  <g id="patch_1">
   <path d="M 0 369.216 
L 684 369.216 
L 684 0 
L 0 0 
z
" style="fill: #ffffff"/>
  </g>
  <g id="axes_1">
   <g id="patch_2">
    <path d="M 7.0326 362.18232 
L 676.9674 362.18232 
L 676.9674 7.03368 
L 7.0326 7.03368 
z
" clip-path="url(#pd5447cc21b)" style="fill: #ffffff; stroke: #ffffff; stroke-linejoin: miter"/>
   </g>
   <g id="patch_3">
    <path d="M 36.20484 184.619088 
L 222.22716 184.619088 
Q 228.92316 184.619088 228.92316 177.966288 
L 228.92316 108.089712 
Q 228.92316 101.436912 222.22716 101.436912 
L 36.20484 101.436912 
Q 29.50884 101.436912 29.50884 108.089712 
L 29.50884 177.966288 
Q 29.50884 184.619088 36.20484 184.619088 
z
" clip-path="url(#pd5447cc21b)" style="fill: #eef2f7; stroke: #d1d5db; stroke-linejoin: miter"/>
   </g>
   <g id="patch_4">
    <path d="M 248.98884 184.619088 
L 435.01116 184.619088 
Q 441.70716 184.619088 441.70716 177.966288 
L 441.70716 108.089712 
Q 441.70716 101.436912 435.01116 101.436912 
L 248.98884 101.436912 
Q 242.29284 101.436912 242.29284 108.089712 
L 242.29284 177.966288 
Q 242.29284 184.619088 248.98884 184.619088 
z
" clip-path="url(#pd5447cc21b)" style="fill: #eef2f7; stroke: #d1d5db; stroke-linejoin: miter"/>
   </g>
   <g id="patch_5">
    <path d="M 461.77284 184.619088 
L 647.79516 184.619088 
Q 654.49116 184.619088 654.49116 177.966288 
L 654.49116 108.089712 
Q 654.49116 101.436912 647.79516 101.436912 
L 461.77284 101.436912 
Q 455.07684 101.436912 455.07684 108.089712 
L 455.07684 177.966288 
Q 455.07684 184.619088 461.77284 184.619088 
z
" clip-path="url(#pd5447cc21b)" style="fill: #eef2f7; stroke: #d1d5db; stroke-linejoin: miter"/>
   </g>
   <g id="patch_6">
    <path d="M 36.20484 278.867088 
L 328.61916 278.867088 
Q 335.31516 278.867088 335.31516 272.214288 
L 335.31516 202.337712 
Q 335.31516 195.684912 328.61916 195.684912 
L 36.20484 195.684912 
Q 29.50884 195.684912 29.50884 202.337712 
L 29.50884 272.214288 
Q 29.50884 278.867088 36.20484 278.867088 
z
" clip-path="url(#pd5447cc21b)" style="fill: #eef2f7; stroke: #d1d5db; stroke-linejoin: miter"/>
   </g>
   <g id="patch_7">
    <path d="M 355.38084 278.867088 
L 647.79516 278.867088 
Q 654.49116 278.867088 654.49116 272.214288 
L 654.49116 202.337712 
Q 654.49116 195.684912 647.79516 195.684912 
L 355.38084 195.684912 
Q 348.68484 195.684912 348.68484 202.337712 
L 348.68484 272.214288 
Q 348.68484 278.867088 355.38084 278.867088 
z
" clip-path="url(#pd5447cc21b)" style="fill: #eef2f7; stroke: #d1d5db; stroke-linejoin: miter"/>
   </g>
   <g id="text_1">
    <text style="font-weight: 700; font-size: 14px; font-family: 'DejaVu Sans', 'Bitstream Vera Sans', 'Computer Modern Sans Serif', 'Lucida Grande', 'Verdana', 'Geneva', 'Lucid', 'Arial', 'Helvetica', 'Avant Garde', sans-serif; text-anchor: start; fill: #0f172a" x="29.52" y="51.101812" transform="rotate(-0 29.52 51.101812)">VASCO – Key Figures</text>
   </g>
   <g id="text_2">
    <text style="font-size: 14px; font-family: 'DejaVu Sans', 'Bitstream Vera Sans', 'Computer Modern Sans Serif', 'Lucida Grande', 'Verdana', 'Geneva', 'Lucid', 'Arial', 'Helvetica', 'Avant Garde', sans-serif; text-anchor: start; fill: #4b5563" x="29.52" y="73.277812" transform="rotate(-0 29.52 73.277812)">Tiles 5,202 • Catalogs 5,202 • X-match 5,166</text>
   </g>
   <g id="text_3">
    <text style="font-size: 12px; font-family: 'DejaVu Sans', 'Bitstream Vera Sans', 'Computer Modern Sans Serif', 'Lucida Grande', 'Verdana', 'Geneva', 'Lucid', 'Arial', 'Helvetica', 'Avant Garde', sans-serif; text-anchor: start; fill: #4b5563" x="40.68" y="126.089325" transform="rotate(-0 40.68 126.089325)">Detections (PASS2)</text>
   </g>
   <g id="text_4">
    <text style="font-weight: 700; font-size: 14px; font-family: 'DejaVu Sans Mono'; text-anchor: start; fill: #0ea5a1" x="40.68" y="149.785012" transform="rotate(-0 40.68 149.785012)">4,008,978</text>
   </g>
   <g id="text_5">
    <text style="font-size: 12px; font-family: 'DejaVu Sans', 'Bitstream Vera Sans', 'Computer Modern Sans Serif', 'Lucida Grande', 'Verdana', 'Geneva', 'Lucid', 'Arial', 'Helvetica', 'Avant Garde', sans-serif; text-anchor: start; fill: #4b5563" x="253.464" y="126.089325" transform="rotate(-0 253.464 126.089325)">Canonical matches</text>
   </g>
   <g id="text_6">
    <text style="font-weight: 700; font-size: 14px; font-family: 'DejaVu Sans Mono'; text-anchor: start; fill: #0ea5a1" x="253.464" y="149.785012" transform="rotate(-0 253.464 149.785012)">6,614,324</text>
   </g>
   <g id="text_7">
    <text style="font-size: 12px; font-family: 'DejaVu Sans', 'Bitstream Vera Sans', 'Computer Modern Sans Serif', 'Lucida Grande', 'Verdana', 'Geneva', 'Lucid', 'Arial', 'Helvetica', 'Avant Garde', sans-serif; text-anchor: start; fill: #334155" x="253.464" y="167.697975" transform="rotate(-0 253.464 167.697975)">164.99%</text>
   </g>
   <g id="text_8">
    <text style="font-size: 12px; font-family: 'DejaVu Sans', 'Bitstream Vera Sans', 'Computer Modern Sans Serif', 'Lucida Grande', 'Verdana', 'Geneva', 'Lucid', 'Arial', 'Helvetica', 'Avant Garde', sans-serif; text-anchor: start; fill: #4b5563" x="466.248" y="126.089325" transform="rotate(-0 466.248 126.089325)">Final no optical counterparts</text>
   </g>
   <g id="text_9">
    <text style="font-weight: 700; font-size: 14px; font-family: 'DejaVu Sans Mono'; text-anchor: start; fill: #0ea5a1" x="466.248" y="149.785012" transform="rotate(-0 466.248 149.785012)">1,494,133</text>
   </g>
   <g id="text_10">
    <text style="font-size: 12px; font-family: 'DejaVu Sans', 'Bitstream Vera Sans', 'Computer Modern Sans Serif', 'Lucida Grande', 'Verdana', 'Geneva', 'Lucid', 'Arial', 'Helvetica', 'Avant Garde', sans-serif; text-anchor: start; fill: #334155" x="466.248" y="167.697975" transform="rotate(-0 466.248 167.697975)">37.27%</text>
   </g>
   <g id="text_11">
    <text style="font-size: 12px; font-family: 'DejaVu Sans', 'Bitstream Vera Sans', 'Computer Modern Sans Serif', 'Lucida Grande', 'Verdana', 'Geneva', 'Lucid', 'Arial', 'Helvetica', 'Avant Garde', sans-serif; text-anchor: start; fill: #4b5563" x="40.68" y="220.337325" transform="rotate(-0 40.68 220.337325)">NEOWISE strict (≤5″)</text>
   </g>
   <g id="text_12">
    <text style="font-weight: 700; font-size: 14px; font-family: 'DejaVu Sans Mono'; text-anchor: start; fill: #0ea5a1" x="40.68" y="244.033012" transform="rotate(-0 40.68 244.033012)">381,617</text>
   </g>
   <g id="text_13">
    <text style="font-size: 12px; font-family: 'DejaVu Sans', 'Bitstream Vera Sans', 'Computer Modern Sans Serif', 'Lucida Grande', 'Verdana', 'Geneva', 'Lucid', 'Arial', 'Helvetica', 'Avant Garde', sans-serif; text-anchor: start; fill: #4b5563" x="359.856" y="220.337325" transform="rotate(-0 359.856 220.337325)">NEOWISE quality</text>
   </g>
   <g id="text_14">
    <text style="font-weight: 700; font-size: 14px; font-family: 'DejaVu Sans Mono'; text-anchor: start; fill: #0ea5a1" x="359.856" y="244.033012" transform="rotate(-0 359.856 244.033012)">W1≥5 381,617 • W2≥5 257,622</text>
   </g>
   <g id="text_15">
    <text style="font-size: 12px; font-family: 'DejaVu Sans', 'Bitstream Vera Sans', 'Computer Modern Sans Serif', 'Lucida Grande', 'Verdana', 'Geneva', 'Lucid', 'Arial', 'Helvetica', 'Avant Garde', sans-serif; text-anchor: start; fill: #334155" x="359.856" y="261.945975" transform="rotate(-0 359.856 261.945975)">any≥5 381,617 • med/p95 0.159/1.638″</text>
   </g>
   <g id="text_16">
    <text style="font-size: 12px; font-family: 'DejaVu Sans', 'Bitstream Vera Sans', 'Computer Modern Sans Serif', 'Lucida Grande', 'Verdana', 'Geneva', 'Lucid', 'Arial', 'Helvetica', 'Avant Garde', sans-serif; text-anchor: start; fill: #4b5563" x="29.52" y="337.010625" transform="rotate(-0 29.52 337.010625)">Source: summarize_runs.py • CDS xmatch ≤5″ • NEOWISE strict ≤5″ • SVG export</text>
   </g>
  </g>
 </g>
 <defs>
  <clipPath id="pd5447cc21b">
   <rect x="7.2" y="7.2" width="669.6" height="354.816"/>
  </clipPath>
 </defs>
</svg>
